<svg xmlns="http://www.w3.org/2000/svg" xmlns:xlink="http://www.w3.org/1999/xlink" height="480" width="480">
   <defs>
      <style>
      .logo{
         --color: #071224;
         fill: var(--color);
      }
      </style>
   </defs>
   <path class="logo"
      d="M349.78 81.448l-77.422-53.616V0h-16.175v24h-32.35V0h-16.176v27.832l-77.421 53.6c-3.667 2.523-4.573 7.508-2.023 11.135A8.116 8.116 0 00134.87 96h210.275c4.467-.003 8.085-3.588 8.082-8.006a7.976 7.976 0 00-3.448-6.546zM160.522 80l57.77-40h43.43l57.769 40zM102.52 312H86.345c-13.4 0-24.263 10.745-24.263 24v8c0 13.255 10.863 24 24.263 24h16.175c13.4 0 24.262-10.745 24.262-24v-8c0-13.255-10.862-24-24.262-24zm8.087 32c0 4.418-3.621 8-8.087 8H86.345c-4.467 0-8.088-3.582-8.088-8v-8c0-4.418 3.621-8 8.088-8h16.175c4.466 0 8.087 3.582 8.087 8zM393.67 312h-16.175c-13.4 0-24.262 10.745-24.262 24v8c0 13.255 10.862 24 24.262 24h16.175c13.4 0 24.263-10.745 24.263-24v-8c0-13.255-10.862-24-24.263-24zm8.088 32c0 4.418-3.621 8-8.088 8h-16.175c-4.466 0-8.087-3.582-8.087-8v-8c0-4.418 3.621-8 8.087-8h16.175c4.467 0 8.088 3.582 8.088 8zM312.795 312H167.22c-13.4 0-24.263 10.745-24.263 24v8c0 13.255 10.863 24 24.263 24h145.575c13.4 0 24.263-10.745 24.263-24v-8c0-13.255-10.863-24-24.263-24zm8.088 32c0 4.418-3.621 8-8.088 8H167.22c-4.467 0-8.088-3.582-8.088-8v-8c0-4.418 3.621-8 8.088-8h145.575c4.467 0 8.088 3.582 8.088 8z" />
   <path class="logo"
      d="M424.856 288.52l-17.93-7.096-53.637-72.952c-7.624-10.334-19.773-16.452-32.705-16.472H159.432c-12.933.02-25.082 6.138-32.706 16.472l-53.637 72.952-17.93 7.096c-15.392 6.031-25.48 20.768-25.427 37.144V464c0 8.837 7.241 16 16.175 16h48.525c8.934 0 16.175-7.163 16.175-16v-32h258.8v32c0 8.837 7.242 16 16.176 16h48.525c8.934 0 16.175-7.163 16.175-16V325.664c.053-16.376-10.035-31.113-25.427-37.144zm-285.053-70.632c4.575-6.203 11.867-9.876 19.629-9.888h161.152c7.762.012 15.053 3.685 19.628 9.888L385.874 280H94.141zM94.433 464H45.906v-33.368c.68.24 1.415.368 2.127.544.469.12.922.28 1.407.368 1.5.294 3.025.447 4.553.456h40.438zm339.675 0h-48.525v-32h40.438a24.417 24.417 0 004.553-.456c.485-.088.938-.248 1.415-.368.704-.176 1.44-.304 2.12-.544zm0-56c0 4.418-3.621 8-8.087 8H53.994c-4.466 0-8.087-3.582-8.087-8v-8h388.201zm0-24H45.907v-58.336c-.034-9.824 6.018-18.665 15.253-22.28L79.81 296h320.395l18.65 7.384c9.235 3.615 15.287 12.456 15.253 22.28zM231.92 112h16.175v24H231.92zM231.92 152h16.175v24H231.92zM137.508 125.492l15.375-18.566 12.513 10.14-15.375 18.566zM111.89 156.444l15.378-18.564 12.511 10.14-15.377 18.564zM86.263 187.382l15.377-18.564 12.512 10.141-15.378 18.564zM60.624 218.357L76 199.793l12.512 10.141-15.378 18.564zM185.01 132.83l6.8-23.038 15.527 4.485-6.801 23.038zM173.663 171.165l6.81-23.035 15.525 4.491-6.81 23.036zM89.155 120.747l17.836-16.272 10.96 11.756-17.835 16.272zM59.422 147.892l17.835-16.272 10.962 11.756-17.836 16.272zM29.716 174.994l17.835-16.272 10.962 11.756-17.836 16.272zM0 202.115l17.835-16.272 10.962 11.755L10.96 213.87zM314.64 118.735l12.51-10.13 15.37 18.57-12.51 10.131zM340.218 149.637l12.513-10.14 15.376 18.567-12.513 10.14zM365.864 180.604l12.512-10.14 15.375 18.565-12.511 10.139zM391.432 211.584l12.511-10.14 15.375 18.564-12.511 10.14zM272.675 116.01l15.528-4.48 6.794 23.04-15.528 4.48zM284.002 154.297l15.525-4.49 6.808 23.036-15.524 4.49zM362.046 117.878l10.96-11.754 17.834 16.272-10.961 11.754zM391.782 145.02l10.963-11.753 17.83 16.274-10.962 11.753zM421.472 172.154l10.963-11.753 17.83 16.275-10.962 11.752zM451.206 199.248l10.961-11.754L480 203.766l-10.961 11.754z" />
</svg>