<svg xmlns="http://www.w3.org/2000/svg" height="480" width="480">
   <defs>
      <style>
      .logo{
         --color: #071224;
         fill: var(--color);
      }
      </style>
   </defs>
   <path class="logo"
      d="M43.301 421.847c-2.15 1.119-4.762.213-5.837-2.034l-8.7-18.187c-1.075-2.247-.205-4.978 1.945-6.102a4.203 4.203 0 011.941-.48c1.598 0 3.131.92 3.896 2.514l8.7 18.188c1.075 2.247.205 4.977-1.945 6.1zM60.702 421.847c-2.15 1.119-4.758.213-5.837-2.034l-17.401-36.375c-1.075-2.246-.204-4.977 1.946-6.1a4.203 4.203 0 011.941-.48c1.598 0 3.131.919 3.896 2.513l17.4 36.375c1.076 2.247.205 4.977-1.945 6.1z" />
   <path class="logo"
      d="M209.924 420.794c-.383.454-9.589 11.164-28.846 21.114-1.802.928-3.977.448-5.272-1.163l-15.987-20.053a4.702 4.702 0 01-.782-4.351l7.847-24.613-11.168-11.678 2.872 9.01a4.726 4.726 0 01-.506 3.96l-16 25.088 13.536 28.293a4.737 4.737 0 01.068 3.917c-.543 1.247-1.597 2.175-2.867 2.517-14.38 3.894-29.93 5.866-46.21 5.866-70.763 0-102.03-36.38-103.33-37.93-.96-1.145-1.305-2.717-.922-4.186l26.101-100.031c.383-1.461 1.436-2.62 2.808-3.104 1.36-.497 2.885-.226 4.036.688.217.173 22.266 17.251 71.308 17.251 49.042 0 71.091-17.078 71.308-17.25a4.269 4.269 0 012.647-.929c.467 0 .938.076 1.389.24 1.372.484 2.426 1.643 2.808 3.104l26.101 100.031a4.699 4.699 0 01-.94 4.21zm-32.02-95.954c-9.601 5.532-32.457 15.643-71.295 15.643s-61.694-10.11-71.295-15.643l-23.91 91.62c6.934 6.954 36.931 33.147 95.205 33.147 13.578 0 26.594-1.43 38.778-4.258l-12.218-25.536a4.726 4.726 0 01.273-4.556l16.22-25.43-8.025-25.172c-.642-2.002.123-4.196 1.839-5.306 1.708-1.114 3.934-.843 5.361.653l26.102 27.281c1.164 1.217 1.572 3.02 1.05 4.654l-7.932 24.879 12.21 15.31c11.466-6.34 18.573-12.73 21.543-15.683z" />
   <path class="logo"
      d="M480.662 179.177c-1.865 2.223-46.718 54.409-148.23 54.409-101.51 0-146.363-52.186-148.228-54.41-1.377-1.643-1.87-3.897-1.322-6.006l37.443-143.494c.548-2.096 2.06-3.758 4.028-4.452 1.944-.707 4.138-.319 5.79.987.31.249 31.938 24.746 102.29 24.746 7.025 0 13.557-.3 19.818-.74l14.015-1.334c46.716-5.895 68.203-22.467 68.458-22.672a6.124 6.124 0 013.797-1.33c.67 0 1.346.107 1.992.343 1.969.694 3.48 2.357 4.028 4.453l37.443 143.494c.549 2.108.055 4.363-1.322 6.006zM434.705 41.562c-9.92 5.716-29.886 14.77-60.993 19.427-4.785.72-4.803.725-13.839 1.622-8.514.807-17.484 1.391-27.441 1.391-55.713 0-88.5-14.504-102.273-22.44l-34.297 131.43c9.946 9.975 52.977 47.55 136.571 47.55 83.24 0 126.552-37.594 136.565-47.57z" />
   <path class="logo"
      d="M254.881 78.513c-3.077-1.592-6.831-.306-8.374 2.917l-12.48 26.09c-1.542 3.224-.293 7.14 2.79 8.753a6.029 6.029 0 002.786.687c2.291 0 4.491-1.318 5.588-3.605l12.48-26.09c1.543-3.224.294-7.14-2.79-8.752zM279.843 78.513c-3.077-1.592-6.832-.306-8.374 2.917l-24.962 52.18c-1.541 3.223-.292 7.14 2.792 8.752a6.029 6.029 0 002.784.688c2.292 0 4.492-1.318 5.589-3.605l24.962-52.18c1.542-3.224.292-7.14-2.791-8.752z" />

   <path class="logo"
      d="M141.857 98.26c-3.026 1.365-4.42 5.035-3.115 8.198l8.635 20.919c-39.99-15.824-84.681 5.232-99.82 47.029-7.136 19.698-6.641 41.527 1.377 60.85 1.306 3.163 4.817 4.62 7.843 3.256 3.026-1.364 4.42-5.034 3.115-8.197-14.354-34.792.996-75.16 34.284-90.162 16.906-7.62 36.096-7.467 52.89.419l-20.78 19.403c-2.462 2.295-2.678 6.243-.482 8.816 2.197 2.573 5.973 2.798 8.435.503l28.146-26.277c1.922-1.793 2.526-4.673 1.498-7.142L149.7 101.516c-1.306-3.162-4.817-4.62-7.843-3.256z" />
   <path class="logo"
      d="M332.482 261.762c-2.564 1.218-3.697 4.378-2.53 7.058 12.821 29.475.354 64.233-27.847 77.634-14.322 6.806-30.72 7.012-45.195.57l17.443-16.943c2.067-2.004 2.188-5.38.27-7.54-1.918-2.16-5.148-2.287-7.215-.282l-23.626 22.944c-1.613 1.565-2.083 4.036-1.165 6.127l12.669 29.108c1.166 2.68 4.19 3.864 6.753 2.645 2.563-1.219 3.696-4.379 2.53-7.058l-7.713-17.722c34.42 12.819 72.267-5.954 84.531-41.93 5.78-16.955 5.008-35.598-2.153-51.967-1.165-2.68-4.189-3.863-6.752-2.644z" />
</svg>