<svg xmlns="http://www.w3.org/2000/svg" height="480" width="480">
   <defs>
      <style>
      .logo{
         --color: #071224;
         fill: var(--color);
      }
      </style>
   </defs>
   <path class="logo"
      d="M304 360H16v-88c0-13.255 10.745-24 24-24h136v-16H60.944l51.576-103.16a15.928 15.928 0 0114.312-8.84H296v-16H126.832a31.831 31.831 0 00-28.624 17.688L43.056 232H40c-22.08.026-39.974 17.92-40 40v184c0 13.255 10.745 24 24 24h64c13.255 0 24-10.745 24-24v-48h192v-16H40c-1.48-.01-2.956-.16-4.408-.448-.44-.08-.872-.208-1.312-.312a25.156 25.156 0 01-2.888-.904c-.448-.176-.896-.352-1.328-.552a23.982 23.982 0 01-2.712-1.472c-.328-.208-.68-.392-1-.608a24.481 24.481 0 01-3.2-2.664c-.168-.168-.312-.368-.48-.544a25.406 25.406 0 01-2.208-2.68c-.264-.376-.504-.8-.744-1.16a25.12 25.12 0 01-1.408-2.584c-.192-.424-.4-.856-.568-1.296-.104-.248-.152-.52-.248-.8H304zM80 408h16v48a8 8 0 01-8 8h-8zm-32 0h16v56H48zm-28.96-6.072a40.107 40.107 0 004.16 2.264c.8.368 1.6.712 2.4 1.032a40.729 40.729 0 004.744 1.472c.568.144 1.088.392 1.672.512V464H24a8 8 0 01-8-8v-56c.304.224.664.392.976.616.664.472 1.368.88 2.064 1.312z" />
   <path class="logo"
      d="M168 280h136v-16H168c-13.255 0-24 10.745-24 24v32c0 13.255 10.745 24 24 24h136v-16H168a8 8 0 01-8-8v-8h144v-16H160v-8a8 8 0 018-8zM104 264H56c-13.255 0-24 10.745-24 24v32c0 13.255 10.745 24 24 24h48c13.255 0 24-10.745 24-24v-32c0-13.255-10.745-24-24-24zm8 56a8 8 0 01-8 8H56a8 8 0 01-8-8v-32a8 8 0 018-8h48a8 8 0 018 8z" />
   <path class="logo"
      d="M480 224v-24a8 8 0 00-8-8h-34.232l-6.176-18.528A8 8 0 00424 168h-24v-12.688c24.091-9.874 39.873-33.276 40-59.312V8a8 8 0 00-8-8H320a8 8 0 00-8 8v88c.127 26.036 15.909 49.438 40 59.312V168h-48v-8h-16v11.056l-27.576 13.784A8.001 8.001 0 00256 192v16a8.001 8.001 0 004.424 7.16L288 228.944V240h16v-8h45.392l-8.688 30.4A13.281 13.281 0 01328 272v16a29.335 29.335 0 0028.088-21.184l.8-2.816h26.952l14.4 72H376v16h25.44l6.72 33.6A8 8 0 00416 392h16v16a8 8 0 01-8 8h-72c-17.673 0-32 14.327-32 32 0 17.673 14.327 32 32 32h128v-16H352c-8.837 0-16-7.163-16-16s7.163-16 16-16h72c13.255 0 24-10.745 24-24v-16h16a8 8 0 007.888-9.32l-23.024-138.168 26.712-13.312A8 8 0 00480 224zm-192-12.944l-16-8v-6.112l16-8zM328 16h96v16h-96zm0 80V48h96v48c-.096 21.193-14.004 39.845-34.288 45.984a8 8 0 00-5.712 7.664V168h-16v-18.352a8 8 0 00-5.712-7.664C342.004 135.845 328.096 117.193 328 96zm33.464 152l4.568-16h11.408l3.2 16zM464 219.056l-27.576 13.784a8 8 0 00-4.312 8.48l1.112 6.68H416v16h19.888l2.672 16H424v16h17.224l2.664 16H432v16h14.552l2.672 16H440v16h11.888l2.664 16h-32L391.84 222.4A8 8 0 00384 216h-80v-32h114.232l6.176 18.528A8 8 0 00432 208h32zM184 192h56v16h-56zM188.443 159.204l7.155-14.31 47.997 23.998-7.155 14.31zM188.38 240.843l47.998-23.998 7.155 14.31-47.997 23.998zM152 192h16v16h-16zM160 136h16v16h-16zM136 160h16v16h-16z" />
   <path class="logo" d="M360 96h-16c0 17.673 14.327 32 32 32v-16c-8.837 0-16-7.163-16-16zM344 64h16v16h-16z" />
</svg>